<?xml version="1.0" encoding="iso-8859-1"?>
<!-- Generator: Adobe Illustrator 18.0.0, SVG Export Plug-In . SVG Version: 6.00 Build 0)  -->
<!DOCTYPE svg PUBLIC "-//W3C//DTD SVG 1.1//EN" "http://www.w3.org/Graphics/SVG/1.1/DTD/svg11.dtd">
<svg version="1.1" id="Capa_1" xmlns="http://www.w3.org/2000/svg" xmlns:xlink="http://www.w3.org/1999/xlink" x="0px" y="0px"
	 viewBox="0 0 62.675 62.675" style="enable-background:new 0 0 62.675 62.675;" xml:space="preserve">
<path d="M49.72,0H22.078c-4.21,0-7.635,3.425-7.635,7.634v1.488h-1.488c-4.209,0-7.634,3.424-7.634,7.634v38.284
	c0,4.209,3.425,7.634,7.634,7.634h27.643c4.209,0,7.634-3.425,7.634-7.634v-1.488h1.488c4.209,0,7.634-3.424,7.634-7.634V7.634
	C57.354,3.425,53.929,0,49.72,0z M40.598,60.675H12.955c-3.106,0-5.634-2.527-5.634-5.634V16.756c0-3.106,2.527-5.634,5.634-5.634
	h19.041v8.813c0,4.209,3.425,7.634,7.634,7.634h6.602v27.471C46.231,58.147,43.704,60.675,40.598,60.675z M33.996,12.806
	l11.047,12.763H39.63c-3.106,0-5.634-2.527-5.634-5.634V12.806z M55.354,45.918c0,3.106-2.527,5.634-5.634,5.634h-1.488V26.569
	c0-0.24-0.087-0.473-0.244-0.654L33.752,9.468c-0.189-0.22-0.466-0.346-0.756-0.346H16.443V7.634C16.443,4.527,18.971,2,22.078,2
	H49.72c3.106,0,5.634,2.527,5.634,5.634V45.918z"/>
<g>
</g>
<g>
</g>
<g>
</g>
<g>
</g>
<g>
</g>
<g>
</g>
<g>
</g>
<g>
</g>
<g>
</g>
<g>
</g>
<g>
</g>
<g>
</g>
<g>
</g>
<g>
</g>
<g>
</g>
</svg>
